<svg xmlns="http://www.w3.org/2000/svg" version="1" width="428" height="557" viewBox="-0.644035339355 -0.386407470702 427.897079467 556.555560301"><path fill="#efa9a9" d="M253 154l-16-9-9-3-6-2q-3-1-3-3 1-3 13-3 14-1 25 5l-1 6-3 9M290 343l7-12 6-1q8-2 16-7l-11 25v5q0 5 2 6l15 14-13 13-12-11-4-12-6-20M254 389l-1 6v5h-8q-5 0-1-4l10-7"/><path fill="#eef4f7" d="M330 314q-12 14-29 17h-14l4 16q5 19 10 30 4 7 4 14 8-5 16-13 11-11 21-26l3-8q4-9 11-16l-8-5q-10-7-18-9M422 1l4 1-3 2-17 17q-10 10-15 21-9 15-16 21-10 6-34 13l-30 8q-19 6-26 14-2 3-2 10l2 10q3 4 15 9l17 5 7 4q1 1-1 4l-15 21 1 8 3 7 17 7 8 3q2 2-2 6l-9 13-4 8q1 8 6 20l8 18 1 4q29 2 30 5 2 3 0 15l-2 12 10 9q10 10 15 13 17 11 20 17 2 4 3 14v12l-9 6-9 5-2 4-3 7q-2 6-9 8-4 0-10 3l-11 6q-13 11-29 28-22 27-31 52l1 39 2 33v11q-4 0-16-9-10-9-14-16-5-6-11-23-7-19-7-25l1-32 1-26q-7-19-2-37l4-11 3-4-12-29-5-12-9 1 1 7 2 9-1 6 1 2 2 3 2 5-4 8q-3 9-3 36l1 35q2 20 0 20-3 1-12-4l-13-10q-4-4-11-17-6-15-6-21l-1-21q-1-17-3-24-8-11-6-24 1-12 8-18-9-7-16-17l-5-10-17 4q-11 18-19 40l-6 18-12 17q-4 3-8 11l-5 7-10 4-17 6q-7 4-29 35l-25 38-8 10q-2 2-5-6l-3-20q-1-11 1-19 1-8 8-25l10-19 8-9 9-10 7-11 5-6q3-23 15-34l8-5 4-1 17-8 3-18 2-11-11-21-3-7H78q-12-3-22-14-7-9-11-18-6-15-14-25-5-7-11-10l-12-4-6-3q0-2 5-4 6-2 15-2 16 0 35 14l12 12q5 5 5 7 9 4 25-1l15-3q12-2 20 1l45 24 20-7q23-7 37-7 13-1 27 9 6 4 10 9l1-8-1-3q-4-5-13-8l-7-5 5-10 6-8-2-6-2-5q-10-1-14-3-4-1-4-3l1-3 12-23q2-4 2-9-3-10-11-14l-5-1h-2l-11 1-11 2h-4v-3l4-7 3-4-3-4h-3q-22 5-24 3l-1-5 2-13q5-19 20-33 9-8 22-14l5-18q4-12 6-12t4 8l3 16q16-4 35-5l42 1q22 3 30 1 14-3 27-18 18-20 37-20"/><path fill="#efa9a9" d="M194 106l8-4-3 6 3 1-4 4-4 1-4-1q-2-1-1-8l2-11 1 6q0 6 2 6M300 497l4 50q0 7-2 7-1 1-5-3l-13-10-7-6 5 1h4l1-20 1-22 1-18 4-20 3 12 4 29M236 421l2 33-1 8h-5l-9-5-8-6 5 1h5l1-19 1-25 2-9 2-4 3 13 2 13M56 423l-11 18q-18 32-24 39-4 6-6 6t-5-14l-3-15 6 6 6-8 11-14q10-12 21-22 10-9 12-8 1 1-7 12M301 447q5-9 14-20 17-22 36-32l-4 7-18 20q-21 25-29 49v-7l1-17M125 195l-3-1-5 1q-11 7-18 43-7 34-4 56 3 21 17 44 14 22 22 21l10-13q13-16 20-33l-5-5q-6-8-6-20l-4-4q-4-6-4-9-1-3 4-8l4-4 2-7q2-9 8-18l-38-43m117 28q4 4 2 5-1 1-6-1l-15-4-19-2-11 5q-7 5-13 12-15 17-14 35 10 6 23 11l15 4 5 2-2 2q-4 4-15 5l-21-1q4 10 13 19 7 8 16 12l14 4 8 1-14 1-12 1q-2 0-3-2l-4-2q-1-2-4-1h-2l-32 41 1 4 1 3q1 2 14 10l18 10q8 3 7 5 0 3-7 3-8 1-22-4l-20-8h-4l-3 1-20 25-6 6q-6 4-7 3v-7l2-10 16-32q-17-20-30-44-13-23-15-37-2-18 2-47 3-26 8-42l10-21 7-12-12-16-13-16q-3-3-4-8-2-5 0-7 1-1 8 2l8 5 14 12q13 11 15 11l15-9 12-5 10-2 12-1 3 1-4 3-17 12q-14 12-14 17 1 6 18 24 17 17 25 21 5-4 15-7l8-2 5-3 6-3q7 0 16 6 8 6 13 12M239 216l23-29 2 5-6 8q-6 9-5 10 1 2 10 6l-3 6-7-3q-8-3-14-3M320 121q2 1 1 5l-1 7-13-4 6-4q5-5 7-4"/><path fill="#727171" d="M275 210l12 10q8 5 11 4 2-1 6-10 4-10 3-16l3 10 7 15 14 28q9 15 10 22v13q0 5-2 9l4 4 5 7 2 7v5l-8 1-12-6q-4 5-11 10-15 10-32 8l-2-9q4-3 7-8 3-7 4-19 1-13-9-48l-12-37M204 340q-2 0-5-3l-1-2v-1l14-1-8 7M79 248l-2 8-10-4q-11-8-20-25l9 8q11 9 23 13M217 110l-18-2q3-10 17-22t22-14l-1 25-8 8-9 9-3-4M424 4q-11 9-18 18l-15 20-9 14q-5 6-14 11-12 6-29 9l-23 6q-24 8-31 16 0-3 3-8l2-5-11 2q-13 3-24 12l-1-34 8-4q12-4 34-8l41-2q22 0 31-6 8-4 17-15l16-17 10-7q7-4 14-4l-1 2"/><path fill="#0f141b" d="M238 78h1v1q-8 3-18 13-10 9-14 17h-1v-1q4-9 14-18 10-8 18-12M237 90h1v1q-5 2-11 8l-9 12h-1v-1q3-6 8-11 6-6 12-9"/><path fill="#094" d="M210 92q4-5 11-10l7-5q2 4 1 8 0 4-3 7t-8 3q-5 0-8-3"/><path fill="#094" d="M227 98l-1-4 1-3q1-2 3-2h4l2 3-1 4-4 3-4-1"/><path fill="#efa9a9" d="M221 90l-1-3q0-2 2-3l3-1 2 2 1 3-1 2-3 1-3-1"/><path fill="#cbd0d3" d="M212 85q14-12 27-14-7 3-15 9-15 10-22 23l-7 2q5-10 17-20"/><path fill="#e08b8b" d="M202 109l-4 4q-4 0-4-2-1-1 1-6l7-2-3 5 3 1"/><path fill="#cbd0d3" d="M205 112l-7 1 4-4 13 1-10 2M249 86l6-12 1 15v10q9-8 20-11 9-3 15-3-7 8-7 21l1 12-2-1-2-3q-2-8-6-5-3 2-8 12l-8 12q-4 5-6-1-3-4-7-6l-6-1-13 1-9 1q-3-2 7-14l11-14q8-6 13-13M373 42q-8 6-17 8l-19 1-24 1q-32 2-59 13v-5l11-3 25-6 22-2h20q24-1 36-8l17-14q12-13 18-17l-19 22q-5 6-11 10"/><path fill="#595857" d="M379 59q-5 5-14 9-11 5-26 8l-23 6q-24 8-31 16 0-3 3-8l2-5-11 2q-13 3-24 12l-1-34 8-4q12-4 34-8l41-2q22 0 31-6 8-4 17-15l16-17q-10 12-13 27l-3 10q-2 5-6 9"/><path fill="#cbd0d3" d="M243 176h6l10-2 2 7-7-1-11-4M296 159l10-7 19-16-25 36-2-8-2-5M335 193l-6 6-5 9-2 6-2-7v-7l9-6q7-4 9-7l-3 6M305 185l1 9q1 11-2 20-3 10-6 10l-7-2-11-7q-15-12-19-31 2 9 13 17 11 7 16 6 5-2 8-9 5-10 3-23l4 10M365 288l-9-8q3-2 8-11l4-8q1 6-3 27M258 252q-1-2 2-5l11-5 2-12q1-6-1-9l-19-10h10l13 1 6 20 6 20q-12 7-24 3-5-1-6-3"/><path fill="#595857" d="M303 216q4-8 4-17 4 19-2 34-6 13-17 19l-6-20-6-20h2q0 2 7 7t13 4q2 0 5-7"/><path fill="#cbd0d3" d="M272 281l10 10q7 5 14 6-1 17-10 25l-5-25-5-10-4-6"/><path fill="#595857" d="M338 259l2 6 1 17q-1 25-19 39-10 8-23 10l-9 1-3-1-1-9q9-8 10-25 16 2 28-4 18-9 14-34"/><path fill="#cbd0d3" d="M339 295l31 31q14 15 18 16 8 4 14 4 11 0 11-10l1 7q0 8-2 10l-27 16v3l-2 4-9 4-8 2 7-5 6-4-5 1q-4 0-5-2l-4-4q-2 0-6 6l1-3 1-7q-5-8-7-19-2-12 2-17l-8-5q-9-7-18-10l4-6q5-7 5-12M341 353l1 14-9 4q-7 3-18 12l15-16 11-14M302 445q1-8 4-15l5-10q3-4 1-9l-1-5 16-8 19-9h9q7 1 11-2l-18 15 1-4 1-3q-13 7-27 22-11 12-21 28"/><path fill="#e08b8b" d="M313 429q13-17 22-23l-13 20-10 22-5 8q-5 8-7 15v-11l1-14 12-17"/><path fill="#cbd0d3" d="M217 308q7 3 22 5l18 1q5 0 4 5l-2 6-1 5q0 10 9 37 10 28 14 29 10 2 15 1 9-1 8-11 1 12-3 18l2 5 2 7-3 9q-4 8-4 6-1-10 2-22l-3 5q-4 4-7 4t-12-6l-3-2q-1 1 2 5l3 4 3 3-9-7q-10-9-13-19 1 9 4 15 3 7 12 18l3 9 2 12-4-3-3-3q-1 10 3 44t8 41l1 1-1 6-9-1-7-9-9-24q-6-16-6-20l1-31 1-27q-4-14-4-24 0-16 9-29l-7-19-7-17-4-9q-23-14-27-18"/><path fill="#e08b8b" d="M304 542v6q0 6-2 6-1 1-10-5-8-6-15-14l9 1 1-6q8 13 13 15 3 2 4-3"/><path fill="#cbd0d3" d="M198 307h18q0 2 14 10l14 9 1 4q-24 5-44-3-21-10-30-32 1 2 12 2 12 0 23-3l-11 6-15 2q6 4 18 5M226 224l12 3-16-2q-12-1-19 2-12 4-23 18-11 15-11 30l-3-2q0-8 3-16t10-17q5-7 12-13 9-6 15-6l20 3M193 333h20l2 10q1 7 3 9l5 2q3 2 7 2 9-1 8-11l1 3q0 4-2 7l-3 7 1 2 1 4-3 7-3 9v-13q-2 7-5 6-2 0-6-6l-1-3-8-6q-4-1-9-6-5-4-8-10 2 8 11 18l9 10 2 7 2 10-4-3-2-1 5 30q4 22 9 29l1 1-1 6h-3l-5-1-4-3q-6-5-12-21l-6-16q1-15-1-32l-3-14q-8-12-6-25l2-8 2-3 3 2h1v1"/><path fill="#e08b8b" d="M235 456l3-1v4l-1 3q-3 1-9-2l-11-8 5 1h3l1-6q5 8 9 9"/><path fill="#595857" d="M204 340q-2 0-5-3l-1-2v-1l14-1-8 7"/><path fill="#e08b8b" d="M63 411q1 1-5 10l-14 22q-13 13-17 19-10 12-14 22-4-14-5-24l5 3 2-2 3-4q6-10 18-23 9-10 18-17 8-7 9-6"/><path fill="#cbd0d3" d="M68 358l-1 11-3 9q-4 7 2 8 5 0 7-3l3-6 1-6q-2-11-1-21 2-13 8-19-14 12-16 27m50 16l-2 2-7 1-5 2-3 6-4 5-9 6-11 7-10 10-11 16-12 14 14-22q6-9 5-10t-9 6q-9 7-18 17-12 13-18 23l-3 4-2 2-5-3q-1-14 2-23l8-12 13-19q19-29 25-47 0-7 4-16 7-16 23-23l10 19q12 21 25 35M127 285q1 2-1 3l-4 2q-7 5-10 14l-5 24-7-15 4-30-9-18 1-3 18 15 13 8M45 223q-9-19-14-25-7-9-24-13 17 0 28 11l19 23q9 11 26 14l-1 7-1 8v-1q-6-1-12-5-14-8-21-19M97 252v-1l3-17 19-2q8-2 13-5l-5 6-6 7-24 12"/><path fill="#595857" d="M79 248l-2 8-10-4q-11-8-20-25l9 8q11 9 23 13"/><path fill="#e08b8b" d="M220 139l11 2 25 7-3 6-10-6q-11-6-23-9M244 228q-17-5-28-6h-13q-11 2-23 16-14 16-14 35l-3-2q0-11 5-23 6-13 16-21l17-11 9-2q8 1 22 8l12 6M166 309l-2 4-4-5q-6-8-7-19l-5-6q-4-7-2-11-1 3 3 6 3 4 8 6 11 7 26 8 13 2 25 0l-11 4q-14 2-25 0l2 5q3 7 8 12 15 17 40 19l-10 1h-16l-6-2-2-2h-5l-32 41-1 5q-1 6 2 10l22 12 15 8-15-1q-17-2-30-11h-3l-5 1-13 17q-13 16-20 17v-5l10-18q9-17 9-22 1-2-1-4l-25-35q-15-23-19-40l-1-6-1-6q1-3 4 0l6 5 7 19q7 19 13 26 8 11 16 17 3 3 8 2h7q7-2 19-17 12-16 13-24l-1-6-1-5M125 195l-4-1-4 1q-4 3-8 11l-4 8q1-8 4-14 2-5 5-7t9-2q7 0 9 2l18 19q15 16 16 19l1 5-3 6-1-5-38-42M136 180q-4-4-4-7l1-4 2-5q5-6 16-12 10-5 19-7-8 3-19 12-14 12-14 18l2 7 3 3-6-5M73 133l3 4 6 6 16 17 9 11v6q-1 4-3 5l-6 7-7 11 4-9q4-10 8-15-12-17-22-28-3-2-5-6-3-5-3-9M302 335l2-5 3-1 12-6-11 25q-2 3-1 10l1 8 13 11-9 9-12-11-4-12-6-18 3-1 4-2 5-7"/><path fill="#595857" d="M330 313q4-4 7-11l2-7 4 4 5 7 2 7v5l-8 1-12-6"/><path fill="#e08b8b" d="M253 395v5l-5 1q-5 0-4-1l5-3 4-2M321 123v3l-1 6-4-1 5-8M253 219l5-6 6 3-5 6-6-3"/><path fill="#094" d="M118 182q-4-3-4-7-1-4 1-5h4l6 4q3 3 4 7l-1 5h-4q-4 0-6-4M142 382q-3 5-6 6h-5l-1-4 1-7 5-5q3-2 5 0 2 1 2 4l-1 6M297 366l-6-17 6 4q4 2 5 6 2 4 0 6-1 2-5 1"/><path fill="#00873c" d="M118 182q-2-1-3-5 5 7 10 6 4-2 0-9 3 3 4 7l-1 5h-4q-4 0-6-4M142 382q-3 5-6 6h-5l-1-5 2-7q-1 3 1 4h3q6-2 5-8 2 1 2 4l-1 6M294 360q3 1 4-1 2-1-1-6 4 2 5 6 2 4 0 6-1 2-5 1l-3-6"/><path fill="#0f141b" d="M261 185l1 2v1l-21 28h-2q-2 0-1-1 15-17 23-30M321 121l1 4-1 8-2-1 1-4v-4-2l-3 1q-3 1-9 7l-2-1v-1q12-9 15-7M261 223h-2l-1-1 5-7 1 1-3 7M240 21q2-4 4-4 3 0 4 5 5 13 8 46t0 40l-7 7-8 6-1 3v1h-1l-1-3v-2l8-6 7-7q3-7 0-41-3-32-7-44l-2-3-1 2-8 24-7 22-1 2-2 2-3 1q-2 0 1-3l3-4 7-21 7-23"/><path fill="#0f141b" d="M209 61q10-9 25-16l-1 4q-13 6-21 14-12 11-18 26-4 11-4 20l1 3 2 1 19-4 3 1 2 1-13 2-11 2-4-1-1-3q-1-9 3-21 5-17 18-29M422 0l5 1-4 4q-19 16-31 39-8 14-17 20-10 7-34 13l-27 7q-23 8-30 17v-2l1-3q8-8 29-15l27-6q22-6 33-14 8-6 16-20 6-11 17-23 9-10 17-16-20-1-38 19-14 16-30 19-8 2-28-1l-42-1q-19 1-35 5l-1-3q33-8 78-3 20 2 28 1 14-3 28-19 8-9 16-13 10-6 22-6"/><path fill="#0f141b" d="M424 1l1 1h-1q-12 2-20 9l-22 24q-9 11-21 14-11 4-33 3-21 0-44 5-17 4-30 9l-1-1v-2q13-5 30-8 22-5 45-5 23 1 33-3 10-3 19-14 16-18 23-23 9-7 21-9"/><path fill="#0f141b" d="M338 51h1l1 1q-22 1-49 8-23 6-36 13l-1-1 1-1q13-7 35-13 26-6 48-7"/><path fill="#0f141b" d="M423 2h2l-2 1q-9 4-23 19l-16 21q-10 11-20 14-6 2-31 3-18 1-39 7-20 6-39 16v-1-1q19-9 39-15t39-8q24-1 30-3 10-3 20-14l16-20q14-15 24-19M345 74v1q1 0 0 0l-30 6q-21 4-28 11v-2l1-2q9-6 28-9l29-5"/><path fill="#0f141b" d="M256 100v-3l13-8q7-3 15-4l8-1-2 5q-9 16-3 30h-1l-2-1q-2-7-1-16 1-8 5-15l-18 4q-9 4-14 9"/><path fill="#0f141b" d="M279 108v-3l2 4q1 7 10 12 8 5 28 10 6 1 7 3t-1 6l-11 16-12 15-2 2q-1-2 2-5l20-29 1-3-6-3q-19-4-28-10-10-6-10-15M307 175l-2-2h3l27 10 5 4-2 5-10 12q-6 8-5 13l-1-2-1-2q1-5 6-12l7-10 2-3q0-2-3-2l-15-6-11-5"/><path fill="#0f141b" d="M304 166l1-2h1v2l-1 4q0 2-1 1v-5M308 161l1-1h1q-1 9 4 17h-2l-4-7v-9M320 208v-5l2 5q1 9 4 17l7 18q10 21 9 39 0 19-11 32-8 9-20 15-13 5-23 3l-1-1-1-1q10 2 23-3 12-5 20-15 10-13 11-30 0-18-9-39l-7-17-4-18M283 141l-1-2q1-1 3 2l7 8 7 15v4l-1-1-15-26"/><path fill="#0f141b" d="M306 200v-3l1-2q4 14 10 27l11 20 10 20q4 11 4 22h-2q0-12-4-23l-10-17-10-19q-6-12-10-25M304 213v-2h1l6 16 8 15q14 27 16 44 3 21-11 34h-1l-1-1q15-14 10-39-3-14-15-37l-7-14-6-16M286 219h1l1 1 6 18 8 24q7 22 6 38-1 21-13 32h-2l-1-1q14-11 14-35 0-15-5-33l-9-26-6-18"/><path fill="#0f141b" d="M274 209l1 1 2 1 7 25q12 37 13 51 2 24-11 36l-1-1v-1q12-11 9-34-1-16-12-51l-8-27M256 136l2 5-3 11-4 8-7 12v3l1 1q6 3 16 4v1q0 2-1 1-11-1-16-3l-4-3 1-5 7-12 5-8 3-9v-6M256 206q-2 2-1 3l2 3 10 4 6 6v2q-2-3-8-6l-9-4-4-3q-1-2 2-7l9-13 1 1h1l-9 14"/><path fill="#0f141b" d="M271 220v-4l3 5 1 10-3 11-2 4q-2 1-1-2 3-9 3-14 1-5-1-10"/><path fill="#0f141b" d="M260 249q-4 3-5 2l3-3q7-6 13-7v1l-1 2-10 5M337 254l13 1 13 1q4 1 5 3l1 4-1 14-2 12-1-1-2-1 4-22-1-4-3-2-11-1-15-1v-3"/><path fill="#0f141b" d="M374 294l19 15 12 10q6 5 7 8l3 14q0 9-2 12l-5 4-9 5-14 8-6 3q-1-1 3-4l16-10 8-4 5-3q2-2 1-11l-3-13-8-9-10-8-18-14-25-24-1-3q1-1 4 2 10 11 23 22M338 296l1-1h1l4 3 5 6 2 8q1 5-1 7l-5 1-3-1-2-1h6l3-1-1-5-2-7-4-5-4-4"/><path fill="#0f141b" d="M329 314v-1l1-1 22 11q10 7 15 14 3 3 2 4l-3-2q-4-6-14-12-10-8-23-13"/><path fill="#0f141b" d="M359 349q1-7 5-14h1l1 1q-4 7-5 17l1 14-1 4-1 4-4 4 1-4 3-8q-2-12-1-18M355 327l2 1v1q-8 9-12 18l-3 19-1 4-1-3q-1-13 2-21 4-8 13-19M319 322l2-1h1l-6 12-6 14-1 6q0 4 2 6l15 14v1l-2 1-15-14-2-7q-1-5 1-8l6-13 5-11"/><path fill="#0f141b" d="M343 348v4q-8 13-18 23-10 11-20 17-1 1-1-1v-1q9-5 21-19 10-11 18-23M385 378q3-2 5-7l4-7 5-4h2l-5 5-4 7q-2 6-5 8-2 2-7 3l-11 4-9 6q-19 17-29 29-22 26-31 53l-1-2v-3q10-27 32-53 13-15 27-26l11-6 10-5 6-2"/><path fill="#0f141b" d="M301 450q-1 1-1-1v-3l16-24q14-16 32-27l4-2q1 1-1 5l-4 6-4 2 6-9q-18 11-35 33l-13 20M238 281l3-1-3 4q-10 8-19 19l-1 3 1 2 13 9 19 12q3 1 2 2l-4-1q-23-13-32-20l-3-4 3-6 10-10 11-9M269 277l-2-3 4 3q11 12 12 20l5 30q5 28 16 53 2 4 2 10t-4 14l-3 6 1-5q3-9 3-15 0-5-2-9-10-23-15-49l-6-35-5-11-6-9"/><path fill="#0f141b" d="M303 393l1-1 1-1 3 7 4 9q3 4 2 8 0 4-3 9l-4 9-4 10q-3 7-1 47l3 58-1 7q-2 1-7-2-11-7-19-15-8-9-12-17-5-11-8-23-4-12-4-17l1-26 1-36 2 4v27l-1 31 4 17 8 22q8 17 30 31l3 2v-4l-2-27-2-51 1-17q0-7 2-12 2-8 7-18l3-9-1-7-4-9-3-6"/><path fill="#0f141b" d="M291 460l2-7 3 7 2 15 3 19-1 1-1 1-6-37-2 16-2 19-1 27-1 15q-1 3-9 0l-1-1v-2l5 2h4v-18-23q2-23 5-34M261 369l1 1v2q-10 16-7 35 2 13 8 24l1 5-4-6q-8-13-8-29t9-32"/><path fill="#0f141b" d="M259 379q1-3 2-2v3q-1 9 2 17 4 9 10 15l9 8q3 3 3 7l-1 4q-1 1-1-3 1-4-2-7l-9-7q-8-7-11-15-4-10-2-20"/><path fill="#0f141b" d="M241 324l2 1 2 1 7 18 9 20q8 25 4 39l-1-2-1-2q3-14-6-37l-16-38M236 332l1-1 1 1v6l2 7v5l-2 5-6 15-2 3v-3l3-9 3-7q2-4 1-8l-1-10v-4"/><path fill="#0f141b" d="M187 360l2 2 3 4 4 22v24l7 19q6 12 11 17 9 8 17 12l5 1 1-5-2-43q-1-35 4-45l2-5-1-3-2-4-1-4 1-1h1l1 3 3 5 1 4-2 6q-5 9-5 45l3 42q0 6-2 7t-8-1q-10-4-18-12-5-5-12-20-7-14-7-18 2-9 0-26-2-20-6-26"/><path fill="#0f141b" d="M188 329h1l1 1q-5 8-4 20 2 12 11 21l1 2-3-2q-9-9-11-20-2-12 4-22"/><path fill="#0f141b" d="M192 339l1-4v3q1 7 6 13 6 7 15 12l4 4q2 2 3 7v5q-1 1-2-3l-2-7-4-4q-12-7-16-12-5-6-5-14"/><path fill="#0f141b" d="M198 338l1 4-1 9h-1l-1-1 1-8-4-9h1l2 1 2 4M197 334l2-1 1 1v2l2 2 1 1 3-2 4-4h2l1 1-6 5-3 2-4-1-2-3-1-2v-1M227 400q2-7 3-6 2 0 3 6l2 10 2 8-1 1-1 1-2-9-2-10-1-4-1 4-2 20v21l-1 11-4 1-6-2-1-1v-2l5 2 4 1v-11l1-20 1-14 1-7M237 217l-2-1-1-2q15 1 27 7 8 5 13 12l-1 1v1q-4-6-15-12t-21-6"/><path fill="#0f141b" d="M213 204q7 0 17 6 10 7 15 15 2 3 0 4l-5-1q-29-7-36-6-5 1-12 7-8 6-14 15-11 14-10 30l-3-1q0-17 10-31 6-9 16-16 7-5 13-6 7-1 20 2l17 4 2 1v-2q-5-7-15-13-9-5-15-5-3 0-9 4l-5 2 2-3 6-4 6-2M179 312q-6-8-9-17l1 1h2q3 8 8 15l11 10q11 7 24 9 14 2 29-1v2q-14 3-29 1-14-2-25-9-6-4-12-11"/><path fill="#0f141b" d="M164 273q-3-2-2-3l4 2q11 7 38 15 6 1 6 3 1 2-4 4-8 5-21 5-13-1-20-4-4-1-4-3l3 1q7 3 21 3t20-4q3-1 2-2l-3-1-19-5q-14-5-21-11M192 89l1-1h1l-1 11 1 5q1 1 5-1l3-2v2l-6 4h-4l-1-7 1-11M200 108h2l1 1q-2 3-5 4h-3l4-3 1-2"/><path fill="#0f141b" d="M239 73v12l-1 12-11 11q-10 10-13 19l22-3q7-1 13 3 5 3 7 7 3 5 4 23l2 25q5 20 19 32l11 7 6 2q2-1 4-9 4-9 3-17 0-6 1-5 2 0 2 6 0 10-4 19-3 6-5 7-3 1-8-1l-11-7q-16-13-21-33l-2-26q0-17-3-22-2-4-5-6-6-4-13-3l-10 1-11 2h-4q-1-1 1-4 1-5 7-11l-2-3-5-1h-11l-3-1 1-3q6-12 17-21 9-8 20-13l3-1v2m-2 13l1-13q-10 4-20 13-12 10-18 21 17 1 18 3l2 2 5-5 10-11 2-10"/><path fill="#0f141b" d="M227 78q-1-1 1-1h1q2 3 2 7-1 5-4 8-4 4-9 4t-9-3l1-1 1-1q3 3 7 3t7-3q3-2 3-7l-1-6"/><path fill="#0f141b" d="M225 84l-3 1-1 3 1 2 2 1 3-1 1-2-1-3-2-1m-4 7l-1-3 1-4 4-1 3 1 1 4q0 2-2 3l-3 1-3-1"/><path fill="#0f141b" d="M224 89l-1-1 1-2h1l1 1v1l-1 1h-1M231 90l-3 1-1 3 1 3 3 1 3-2 1-3-2-3h-2m-6 5q0-3 2-4l3-3h4l2 4v5l-5 3-4-2q-2-1-2-3M162 236l1 4q-6 10-9 21v3l-2 1-4 5-2 5q0 3 3 7l4 6h1l3 12q2 7 8 13l-1 2-9-11-4-15-4-6q-4-5-4-8t4-8l5-5q3-14 10-26M202 210q1-1 0 0l-1 2q-11 2-21 9l-2-2q10-7 24-9M153 371v3l1 3 20 13 17 9q3 2 2 4 0 3-6 3-13 1-24-3l-20-9h-3l-4 1-20 26-7 6q-4 3-6 2-2 0-2-7l2-10 9-19 8-15 1 1 1 1-8 15-8 18q-2 4-2 9v5l4-2 6-6 21-26 5-1h4l19 8q13 4 24 4l4-1q1-1-1-2l-15-8-22-14-2-4v-6q0-2 15-21l17-20h3l4 1q3 3 7 3l10 1 14-2 3 1h2q-7 2-17 2l-12 1-8-4-3-1h-2q-30 38-31 41"/><path fill="#0f141b" d="M103 174l1 4q-8 11-15 28-6 12-10 47t-1 47q5 20 21 46 11 18 23 31l1 5v4l-3 2v-2l1-4-1-3q-14-15-23-31-16-24-22-48-3-12 1-45 3-35 10-50 9-20 17-31M166 146l4-2-5-1-8 1-11 2q-15 6-26 14l-2-1q11-9 27-15l10-2 10-1q7 0 7 2l-4 4q-11 6-20 15-10 9-10 13 0 5 18 24 19 19 28 23l2 1h-4q-10-4-29-24-18-19-18-24t11-15q10-9 20-14"/><path fill="#0f141b" d="M118 196q-12 8-18 42-5 26-4 50 0 19 15 45 5 10 11 17t9 8l4 1 4-2h3l-3 2-4 2-5-1q-4-2-9-8l-12-17q-15-25-16-47-1-25 4-51 6-33 20-43l4-1 5 1 18 20 18 20q2 2 2 5v4l-1-2-1-2q0-2-2-3l-18-20-18-20-3-1-3 1"/><path fill="#0f141b" d="M164 312l2-4-1 6q-4 14-29 46h-2q-2 0-1-1l21-28q8-12 10-19M81 130q6 2 10 6l15 13q11 9 16 10 3 1 2 2h-4q-4-1-16-11l-14-13-9-5q-5-3-6-2-2 1 0 5l3 8 14 16q12 14 12 16 2 5 1 6t-2-3l-2-5-12-14-13-15-3-9v-7q2-1 8 2M154 297l1 2v2l-14 30-10 28h-1l-2-1q6-23 26-61M117 374l1 1 1 1-12 4q-8 3-13 7l-3 1q0-2 3-5 8-6 23-9"/><path fill="#0f141b" d="M116 375h2l1 1q-3 2-5 6l-5 8-3 4-6 2-9 3q-8 2-12 5-8 4-30 37l-28 41q-4 6-6 6-3-1-4-6-4-12-4-22-1-10 1-20 1-8 8-24l10-20 16-17q10-12 14-27l1 1v3q0 7-13 24l-15 18q-3 3-11 21l-8 22q-3 18 4 41l1 3q1 1 4-4 9-16 26-40 23-34 33-39 8-5 21-8l6-3 2-3q5-9 9-13"/><path fill="#0f141b" d="M83 319l1 1v1q-9 2-17 14-11 14-11 33l-1 4-1-5q0-20 10-34 9-12 19-14M87 327v1q-8 10-9 25v20q1 5-3 9l-4 3q-2 1 1-3l3-4 1-4q-2-14-1-22 2-14 11-25h1"/><path fill="#0f141b" d="M91 335l1 1 1 2-16 9v-2l14-10M56 414q7-5 8-4 2 1-2 6l-13 20-19 31-2 1q5-12 17-30l15-23 2-2-4 2q-8 6-20 19t-21 26l-2 3-2 1-3-2-3-2 1-3v-1l5 5q1 1 3-2l13-20q12-15 27-25M99 311l4-30 3 4-5 30-1-1-1-3M133 225l6-2q2 0-4 4-7 4-13 13l-4 1q7-11 15-16"/><path fill="#0f141b" d="M98 252l-1 1v-4h1l16-7 15-6q5-2 5 0l-5 3q-16 5-31 13M109 287l1 4-4-4q-5-6-11-18v-6q6 13 14 24M68 205q7 6 18 5l-1 2q-7 1-12-2-4-1-7-4t-2-4l4 3M135 206l1 1v2q-6-5-28-1l2-4 13-1q6 0 12 3"/><path fill="#0f141b" d="M18 190q-5-3-13-5l-5-2q-1-2 3-4 10-6 22-4 14 1 28 11 14 9 23 24h-2q-9-13-22-22-14-9-27-11-12-1-20 3l-2 2 3 1 14 5q7 4 13 11l7 11 6 12q8 15 13 21 8 10 19 12v2q-12-2-21-12-5-6-13-22l-6-12-7-11q-5-6-13-10"/><path fill="#0f141b" d="M44 222l-1-3v-2q5 10 16 19 10 8 20 11v2q-11-3-20-10t-15-17M124 175q-2-3-5-4h-4v4q0 3 3 7l6 3h3l1-4-4-6m-4-6l6 4 4 8q0 4-2 5-1 2-5 1l-6-4q-4-4-5-8 0-4 2-6h6M141 382l1-6-1-4-4 1-5 5-1 6 1 3h4q3-1 5-5m-11-5l6-6h6q2 1 2 5l-1 7-6 6q-4 1-6-1-2-1-2-4l1-7M295 331h2l1 1-6 10h-1l-1-1 5-10"/><path fill="#0f141b" d="M296 341h2l-2 3-3 1-4-3v-3-1l3 3 2 1 2-1M301 377l-1-2v-1l13 11-1 2-11-10M292 350l-1-1v-1q4 1 7 4 4 3 5 7 2 4 0 6-1 2-3 2h-4v-1l1-1h3l2-1q1-1-1-4-1-4-4-7l-5-3M257 137v3q-11-4-20-5h-10l-6 2q-1 1 2 2l14 5q11 4 17 8v2l-1 1q-7-5-18-9l-13-5q-5-2-4-4 0-3 9-4 14-2 30 4M279 397v-2q1-1 2 2l1 2v1l-3-3M236 275l2-4v3l-3 11-2 2h-1l4-12M255 387v1l-1 2-4 3-5 4-1 1 2 1 7-1v2l1 1h-9q-3 0-3-2l2-4 11-8"/></svg>